<svg width="8" height="8" viewBox="0 0 8 8" fill="none" xmlns="http://www.w3.org/2000/svg">
<path d="M6.2312 0.977492L5.4312 0.555466C4.7288 0.185289 4.3776 0 4 0C3.6224 0 3.2712 0.184887 2.5688 0.555466L2.4404 0.623392L6.0096 2.67283L7.616 1.86495C7.3576 1.57074 6.9408 1.35088 6.2312 0.976688M7.8992 2.39711L6.3 3.20096V4.42122C6.3 4.50117 6.26839 4.57784 6.21213 4.63438C6.15587 4.69091 6.07957 4.72267 6 4.72267C5.92044 4.72267 5.84413 4.69091 5.78787 4.63438C5.73161 4.57784 5.7 4.50117 5.7 4.42122V3.50241L4.3 4.20579V8C4.5872 7.92805 4.914 7.75603 5.4312 7.48312L6.2312 7.06109C7.0916 6.60732 7.522 6.38063 7.7612 5.97267C8 5.56511 8 5.05748 8 4.04341V3.99638C8 3.23553 8 2.75965 7.8992 2.39711ZM3.7 8V4.20579L0.1008 2.39711C3.57628e-08 2.75965 0 3.23553 0 3.99558V4.0426C0 5.05748 -4.76837e-08 5.56511 0.2388 5.97267C0.478 6.38063 0.9084 6.60772 1.7688 7.0615L2.5688 7.48312C3.086 7.75603 3.4128 7.92805 3.7 8ZM0.384 1.86535L4 3.68207L5.3644 2.99678L1.81 0.955788L1.7688 0.977492C1.0596 1.35129 0.6424 1.57114 0.384 1.86576" fill="#0D6FF0"/>
</svg>
