<svg width="10" height="8" viewBox="0 0 10 8" fill="none" xmlns="http://www.w3.org/2000/svg">
<path d="M6.64255 0.245703L9.75838 3.40734C9.9131 3.56453 10 3.7776 10 3.99976C10 4.22192 9.9131 4.435 9.75838 4.59218L6.6431 7.75438C6.48811 7.91165 6.2779 8 6.05871 8C5.83952 8 5.62931 7.91165 5.47432 7.75438C5.31933 7.59711 5.23226 7.38381 5.23226 7.1614C5.23226 6.93899 5.31933 6.72568 5.47432 6.56842L7.17957 4.8381H0.826188C0.607069 4.8381 0.396925 4.74977 0.241985 4.59255C0.0870446 4.43534 0 4.2221 0 3.99976C0 3.77742 0.0870446 3.56419 0.241985 3.40697C0.396925 3.24975 0.607069 3.16143 0.826188 3.16143H7.17957L5.47487 1.43111C5.31995 1.27384 5.23295 1.06057 5.233 0.838207C5.23305 0.615848 5.32016 0.402618 5.47515 0.245423C5.63014 0.088229 5.84032 -5.2381e-05 6.05946 2.33173e-08C6.27859 5.24277e-05 6.48873 0.0884344 6.64365 0.245703H6.64255Z" fill="black"/>
</svg>
