<svg width="8" height="14" viewBox="0 0 8 14" fill="none" xmlns="http://www.w3.org/2000/svg">
<path d="M1 6L1.55133 7.97667C2.54667 11.548 3.04467 13.3333 4 13.3333C4.95533 13.3333 5.45333 11.548 6.44867 7.97667L7 6" fill="#DFC387"/>
<path d="M1 6L1.55133 7.97667C2.54667 11.548 3.04467 13.3333 4 13.3333C4.95533 13.3333 5.45333 11.548 6.44867 7.97667L7 6" stroke="#DFC387" stroke-linecap="round" stroke-linejoin="round"/>
<mask id="mask0_63_156" style="mask-type:alpha" maskUnits="userSpaceOnUse" x="0" y="0" width="8" height="8">
<path d="M4 0C2.00267 0 0.211333 1.83267 0.770667 3.85533C0.926 4.418 0 4.642 0 5.24867C0 7.05533 3 5.22467 3 7.19133C3 8.26933 4.66667 8.26933 4.66667 7.19133C4.66667 5.08467 8 7.216 8 5.24867C8 4.642 7.07333 4.418 7.22933 3.85533C7.78867 1.83333 5.99733 0 4 0Z" fill="white"/>
</mask>
<g mask="url(#mask0_63_156)">
<circle cx="4.00001" cy="3.33333" r="5.33333" fill="#0D6FF0"/>
</g>
<path d="M1.00001 2.99998C0.666674 2.33331 1.66667 0.333313 3.33334 0.333313C2.00001 0.59998 1.22223 2.2222 1.00001 2.99998Z" fill="#4890EE"/>
<path d="M6.33333 1.33333C7.33333 2 7.33334 2.66665 7 3.66667C7.30587 2.34178 6.66666 1.99999 6.33333 1.33333Z" fill="#4890EE"/>
</svg>
