<svg width="10" height="8" viewBox="0 0 10 8" fill="none" xmlns="http://www.w3.org/2000/svg">
<path d="M2.2 3.20001C2.2 3.20001 1.1714 3.60001 1 5.00001M7.8 3.20001C7.8 3.20001 8.8286 3.60001 9 5.00001M3.8 3.20001C3.8 3.20001 4.76 3.43341 5 4.60001C5.24 3.43341 6.2 3.20001 6.2 3.20001M4.2 6.20001C4.2 6.20001 3.36 6.35001 3 7.40001M5.8 6.20001C5.8 6.20001 6.64 6.35001 7 7.40001" stroke="black" stroke-width="0.5" stroke-linecap="round"/>
<path d="M5 6.59998C5.55228 6.59998 6 6.15226 6 5.59998C6 5.04769 5.55228 4.59998 5 4.59998C4.44772 4.59998 4 5.04769 4 5.59998C4 6.15226 4.44772 6.59998 5 6.59998Z" stroke="black" stroke-width="0.5" stroke-linecap="round" stroke-linejoin="round"/>
<path d="M6.99999 3.4C7.66273 3.4 8.19999 2.86274 8.19999 2.2C8.19999 1.53726 7.66273 1 6.99999 1C6.33725 1 5.79999 1.53726 5.79999 2.2C5.79999 2.86274 6.33725 3.4 6.99999 3.4Z" stroke="black" stroke-width="0.5" stroke-linecap="round" stroke-linejoin="round"/>
<path d="M2.99999 3.4C3.66273 3.4 4.19999 2.86274 4.19999 2.2C4.19999 1.53726 3.66273 1 2.99999 1C2.33725 1 1.79999 1.53726 1.79999 2.2C1.79999 2.86274 2.33725 3.4 2.99999 3.4Z" stroke="black" stroke-width="0.5" stroke-linecap="round" stroke-linejoin="round"/>
</svg>
